<mxfile host="app.diagrams.net" modified="2023-11-25T22:56:28.434Z" agent="Mozilla/5.0 (Windows NT 10.0; Win64; x64) AppleWebKit/537.36 (KHTML, like Gecko) Chrome/119.0.0.0 Safari/537.36" etag="01z5VXScsv81NZur_Qfe" version="22.1.4" type="device">
  <diagram id="C5RBs43oDa-KdzZeNtuy" name="Page-1">
    <mxGraphModel dx="1500" dy="1190" grid="1" gridSize="10" guides="1" tooltips="1" connect="1" arrows="1" fold="1" page="0" pageScale="1" pageWidth="827" pageHeight="1169" math="0" shadow="0">
      <root>
        <mxCell id="WIyWlLk6GJQsqaUBKTNV-0" />
        <mxCell id="WIyWlLk6GJQsqaUBKTNV-1" parent="WIyWlLk6GJQsqaUBKTNV-0" />
        <mxCell id="bQHIVA_FNxmgwQqM01EU-3" style="edgeStyle=orthogonalEdgeStyle;rounded=0;orthogonalLoop=1;jettySize=auto;html=1;exitX=0.5;exitY=1;exitDx=0;exitDy=0;exitPerimeter=0;entryX=0.5;entryY=0;entryDx=0;entryDy=0;" edge="1" parent="WIyWlLk6GJQsqaUBKTNV-1" source="bQHIVA_FNxmgwQqM01EU-1" target="bQHIVA_FNxmgwQqM01EU-2">
          <mxGeometry relative="1" as="geometry" />
        </mxCell>
        <mxCell id="bQHIVA_FNxmgwQqM01EU-1" value="Start" style="strokeWidth=2;html=1;shape=mxgraph.flowchart.start_1;whiteSpace=wrap;" vertex="1" parent="WIyWlLk6GJQsqaUBKTNV-1">
          <mxGeometry x="405" y="-70" width="100" height="60" as="geometry" />
        </mxCell>
        <mxCell id="bQHIVA_FNxmgwQqM01EU-17" style="edgeStyle=orthogonalEdgeStyle;rounded=0;orthogonalLoop=1;jettySize=auto;html=1;exitX=0.5;exitY=1;exitDx=0;exitDy=0;entryX=0.5;entryY=0;entryDx=0;entryDy=0;" edge="1" parent="WIyWlLk6GJQsqaUBKTNV-1" source="bQHIVA_FNxmgwQqM01EU-2" target="bQHIVA_FNxmgwQqM01EU-15">
          <mxGeometry relative="1" as="geometry" />
        </mxCell>
        <mxCell id="bQHIVA_FNxmgwQqM01EU-2" value=" Input: a, b, k (integers)" style="shape=parallelogram;html=1;strokeWidth=2;perimeter=parallelogramPerimeter;whiteSpace=wrap;rounded=1;arcSize=12;size=0.23;" vertex="1" parent="WIyWlLk6GJQsqaUBKTNV-1">
          <mxGeometry x="395" y="20" width="110" height="60" as="geometry" />
        </mxCell>
        <mxCell id="bQHIVA_FNxmgwQqM01EU-7" value="" style="edgeStyle=orthogonalEdgeStyle;rounded=0;orthogonalLoop=1;jettySize=auto;html=1;" edge="1" parent="WIyWlLk6GJQsqaUBKTNV-1" source="bQHIVA_FNxmgwQqM01EU-4" target="bQHIVA_FNxmgwQqM01EU-6">
          <mxGeometry relative="1" as="geometry" />
        </mxCell>
        <mxCell id="bQHIVA_FNxmgwQqM01EU-10" value="" style="edgeStyle=orthogonalEdgeStyle;rounded=0;orthogonalLoop=1;jettySize=auto;html=1;" edge="1" parent="WIyWlLk6GJQsqaUBKTNV-1" source="bQHIVA_FNxmgwQqM01EU-4" target="bQHIVA_FNxmgwQqM01EU-9">
          <mxGeometry relative="1" as="geometry" />
        </mxCell>
        <mxCell id="bQHIVA_FNxmgwQqM01EU-4" value="For:&lt;br&gt;i &amp;lt; k" style="rhombus;whiteSpace=wrap;html=1;strokeWidth=2;rounded=1;arcSize=12;" vertex="1" parent="WIyWlLk6GJQsqaUBKTNV-1">
          <mxGeometry x="390" y="280" width="120" height="100" as="geometry" />
        </mxCell>
        <mxCell id="bQHIVA_FNxmgwQqM01EU-8" style="edgeStyle=orthogonalEdgeStyle;rounded=0;orthogonalLoop=1;jettySize=auto;html=1;exitX=0.5;exitY=0;exitDx=0;exitDy=0;" edge="1" parent="WIyWlLk6GJQsqaUBKTNV-1" source="bQHIVA_FNxmgwQqM01EU-6">
          <mxGeometry relative="1" as="geometry">
            <mxPoint x="450" y="240" as="targetPoint" />
            <Array as="points">
              <mxPoint x="610" y="240" />
            </Array>
          </mxGeometry>
        </mxCell>
        <mxCell id="bQHIVA_FNxmgwQqM01EU-6" value=" total += b" style="whiteSpace=wrap;html=1;strokeWidth=2;rounded=1;arcSize=12;" vertex="1" parent="WIyWlLk6GJQsqaUBKTNV-1">
          <mxGeometry x="550" y="300" width="120" height="60" as="geometry" />
        </mxCell>
        <mxCell id="bQHIVA_FNxmgwQqM01EU-9" value=" Output total" style="whiteSpace=wrap;html=1;strokeWidth=2;rounded=1;arcSize=12;" vertex="1" parent="WIyWlLk6GJQsqaUBKTNV-1">
          <mxGeometry x="230" y="300" width="120" height="60" as="geometry" />
        </mxCell>
        <mxCell id="bQHIVA_FNxmgwQqM01EU-11" value="Output:&lt;br&gt;&amp;nbsp;solve(a, b, k)" style="shape=parallelogram;html=1;strokeWidth=2;perimeter=parallelogramPerimeter;whiteSpace=wrap;rounded=1;arcSize=12;size=0.23;" vertex="1" parent="WIyWlLk6GJQsqaUBKTNV-1">
          <mxGeometry x="380" y="470" width="130" height="60" as="geometry" />
        </mxCell>
        <mxCell id="bQHIVA_FNxmgwQqM01EU-12" style="edgeStyle=orthogonalEdgeStyle;rounded=0;orthogonalLoop=1;jettySize=auto;html=1;exitX=0.5;exitY=1;exitDx=0;exitDy=0;entryX=0.612;entryY=-0.037;entryDx=0;entryDy=0;entryPerimeter=0;" edge="1" parent="WIyWlLk6GJQsqaUBKTNV-1" source="bQHIVA_FNxmgwQqM01EU-9" target="bQHIVA_FNxmgwQqM01EU-11">
          <mxGeometry relative="1" as="geometry" />
        </mxCell>
        <mxCell id="bQHIVA_FNxmgwQqM01EU-13" value="END" style="strokeWidth=2;html=1;shape=mxgraph.flowchart.terminator;whiteSpace=wrap;" vertex="1" parent="WIyWlLk6GJQsqaUBKTNV-1">
          <mxGeometry x="395" y="585" width="100" height="60" as="geometry" />
        </mxCell>
        <mxCell id="bQHIVA_FNxmgwQqM01EU-14" style="edgeStyle=orthogonalEdgeStyle;rounded=0;orthogonalLoop=1;jettySize=auto;html=1;exitX=0.5;exitY=1;exitDx=0;exitDy=0;entryX=0.5;entryY=0;entryDx=0;entryDy=0;entryPerimeter=0;" edge="1" parent="WIyWlLk6GJQsqaUBKTNV-1" source="bQHIVA_FNxmgwQqM01EU-11" target="bQHIVA_FNxmgwQqM01EU-13">
          <mxGeometry relative="1" as="geometry" />
        </mxCell>
        <mxCell id="bQHIVA_FNxmgwQqM01EU-16" style="edgeStyle=orthogonalEdgeStyle;rounded=0;orthogonalLoop=1;jettySize=auto;html=1;exitX=0.5;exitY=1;exitDx=0;exitDy=0;entryX=0.5;entryY=0;entryDx=0;entryDy=0;" edge="1" parent="WIyWlLk6GJQsqaUBKTNV-1" source="bQHIVA_FNxmgwQqM01EU-15" target="bQHIVA_FNxmgwQqM01EU-4">
          <mxGeometry relative="1" as="geometry" />
        </mxCell>
        <mxCell id="bQHIVA_FNxmgwQqM01EU-15" value="Initialize total = a&lt;br&gt;Iteration: i = 0" style="shape=hexagon;perimeter=hexagonPerimeter2;whiteSpace=wrap;html=1;fixedSize=1;size=40;" vertex="1" parent="WIyWlLk6GJQsqaUBKTNV-1">
          <mxGeometry x="365" y="110" width="170" height="80" as="geometry" />
        </mxCell>
        <mxCell id="bQHIVA_FNxmgwQqM01EU-18" value="Increment i" style="text;html=1;align=center;verticalAlign=middle;resizable=0;points=[];autosize=1;strokeColor=none;fillColor=none;" vertex="1" parent="WIyWlLk6GJQsqaUBKTNV-1">
          <mxGeometry x="490" y="218" width="80" height="30" as="geometry" />
        </mxCell>
        <mxCell id="bQHIVA_FNxmgwQqM01EU-19" value="no" style="text;html=1;align=center;verticalAlign=middle;resizable=0;points=[];autosize=1;strokeColor=none;fillColor=none;" vertex="1" parent="WIyWlLk6GJQsqaUBKTNV-1">
          <mxGeometry x="350" y="298" width="40" height="30" as="geometry" />
        </mxCell>
      </root>
    </mxGraphModel>
  </diagram>
</mxfile>
